<svg xmlns="http://www.w3.org/2000/svg" viewBox="0 0 512 512" role="img" aria-label="Oficina 360">
  <defs>
    <linearGradient id="bg" x1="64" y1="48" x2="448" y2="464" gradientUnits="userSpaceOnUse">
      <stop stop-color="#1f78e8"/>
      <stop offset="1" stop-color="#0b213d"/>
    </linearGradient>
  </defs>
  <rect width="512" height="512" rx="112" fill="url(#bg)"/>
  <path d="M350 104c-38 0-69 31-69 69 0 9 2 18 5 26L169 316a58 58 0 1 0 27 27l117-117c8 3 17 5 26 5 38 0 69-31 69-69 0-8-1-15-4-22l-45 45-32-8-8-32 45-45c-5-2-9-3-14-4zM150 381a22 22 0 1 1 0-44 22 22 0 0 1 0 44z" fill="#fff" opacity=".96"/>
  <path d="M98 111h144v58H98z" fill="#07192d" opacity=".7" rx="18"/>
  <text x="117" y="152" fill="#fff" font-family="Arial,Helvetica,sans-serif" font-size="44" font-weight="800">O360</text>
</svg>